<svg width="64" height="19" viewBox="0 0 64 19" fill="none" xmlns="http://www.w3.org/2000/svg">
<path fill-rule="evenodd" clip-rule="evenodd" d="M9.07541 18.5323C8.63977 18.5294 8.2092 18.463 7.79333 18.333C7.33833 18.1911 6.8985 18.0013 6.4792 17.7686C5.90783 17.47 5.36075 17.1217 4.84621 16.7288C4.38184 16.3591 3.94458 15.9567 3.53527 15.524C2.98022 14.9579 2.46227 14.3804 2.03629 13.8478C1.56568 13.2834 1.15908 12.6646 0.824354 12.0043L0.794878 11.9451V11.9434L0.788776 11.9287V11.9219L0.75635 11.8508L0.754743 11.8458L0.751354 11.8411L0.720692 11.7716L0.717282 11.7635V11.7601L0.69286 11.709L0.68674 11.6925L0.681703 11.6794L0.676886 11.6692V11.6675L0.652688 11.6132L0.651084 11.6068L0.644381 11.5999L0.615386 11.5325L0.610447 11.5227L0.583078 11.4534L0.581473 11.4501L0.579869 11.445L0.524666 11.3047V11.3031L0.521494 11.2951L0.497416 11.2303L0.495812 11.224L0.492419 11.2173C0.485717 11.1975 0.477972 11.1759 0.47139 11.1561V11.1515L0.466335 11.1397C0.458349 11.1152 0.451885 11.0969 0.445665 11.0787V11.0753L0.440609 11.0606L0.416188 10.9976L0.411613 10.9796L0.392229 10.9221L0.388819 10.9118L0.387214 10.904C0.379007 10.8823 0.374412 10.8625 0.369376 10.8461L0.362792 10.8278L0.348343 10.7767L0.344933 10.767V10.7654L0.342125 10.7535L0.327195 10.7023L0.324265 10.6945L0.322661 10.6808C0.316079 10.6614 0.311042 10.6449 0.308093 10.628L0.301531 10.6086C0.29824 10.5917 0.293184 10.574 0.288729 10.5541L0.283671 10.536V10.5309C0.2805 10.5179 0.275444 10.4996 0.270869 10.4798L0.264287 10.4549C0.260895 10.4383 0.257607 10.422 0.253132 10.402L0.251325 10.3907L0.248053 10.3776C0.244762 10.3611 0.241353 10.3445 0.236898 10.3281L0.233487 10.3031C0.231882 10.2917 0.228671 10.2799 0.226784 10.2669V10.2538L0.22233 10.2287V10.2253L0.215627 10.1873C0.212457 10.1759 0.21081 10.1645 0.209044 10.1527L0.202826 10.1151C0.201221 10.1032 0.199533 10.0918 0.197887 10.0833C0.196282 10.0737 0.194597 10.0555 0.191206 10.0406L0.188037 10.014C0.186833 9.99762 0.183442 9.98289 0.181696 9.9664L0.174994 9.94146V9.93677C0.171823 9.91869 0.171824 9.90388 0.168894 9.88864C0.168894 9.88061 0.167288 9.87216 0.165722 9.86412V9.86077C0.163916 9.84587 0.162313 9.82939 0.160667 9.81474C0.160667 9.80444 0.15906 9.79658 0.15906 9.78637V9.78477C0.157254 9.77172 0.155649 9.75849 0.155649 9.74544C0.155649 9.73364 0.152719 9.72225 0.152719 9.71087C0.152719 9.6989 0.151115 9.68752 0.14955 9.67614C0.14955 9.66258 0.147743 9.6496 0.147743 9.63663C0.147743 9.62332 0.147744 9.61495 0.146139 9.60524C0.144533 9.59503 0.146137 9.57871 0.144531 9.5654V9.56373C0.144531 9.55235 0.144531 9.54214 0.144531 9.53092C0.144531 9.51895 0.144531 9.51251 0.144531 9.50414V9.49275C0.144531 9.4797 0.144531 9.46781 0.144531 9.45643C0.144531 9.44337 0.144531 9.43668 0.144531 9.42688V9.35248C0.144531 9.33775 0.144531 9.32293 0.144531 9.30636C0.144531 9.29632 0.144531 9.28493 0.144531 9.27481C0.144531 9.2651 0.144531 9.24853 0.144531 9.23547C0.144531 9.22702 0.144531 9.22032 0.144531 9.21229V9.20074C0.144531 9.184 0.144533 9.16918 0.146139 9.15445C0.146139 9.14642 0.146139 9.13788 0.146139 9.12817C0.146139 9.11469 0.147744 9.0998 0.14955 9.08163C0.14955 9.07368 0.149549 9.06523 0.151154 9.05728C0.151154 9.04079 0.154083 9.02556 0.155728 9.00907V8.98287C0.155728 8.9663 0.157333 8.95174 0.159139 8.93516L0.162431 8.91031V8.90512C0.162431 8.89038 0.165842 8.87557 0.167367 8.85749C0.167367 8.85063 0.167367 8.84611 0.170297 8.83925V8.82954C0.171902 8.81305 0.173588 8.79614 0.176999 8.78141L0.180171 8.75856C0.181776 8.74199 0.185207 8.72391 0.186852 8.70742L0.189681 8.68934V8.686C0.193072 8.66942 0.194719 8.65294 0.19801 8.63318L0.202945 8.60991C0.205875 8.59174 0.209167 8.57364 0.212578 8.55545L0.215747 8.54061V8.53246C0.219158 8.51437 0.22245 8.49449 0.225379 8.47642L0.228791 8.4599V8.45825C0.233607 8.44004 0.237018 8.42018 0.241472 8.40197V8.39526L0.243077 8.38388C0.246488 8.36569 0.251405 8.34761 0.256341 8.32592L0.260937 8.30964C0.264328 8.29146 0.269263 8.27144 0.275484 8.24869L0.277091 8.23864L0.278696 8.23218C0.285397 8.21074 0.290454 8.18918 0.296675 8.16583L0.299967 8.15289C0.306528 8.12953 0.311123 8.11014 0.317805 8.09027L0.321096 8.07506C0.326032 8.05699 0.332371 8.03399 0.338953 8.01254V8.00907L0.342244 7.99769C0.35011 7.97627 0.356812 7.95303 0.362912 7.93352L0.366322 7.92179C0.372884 7.90022 0.38077 7.87735 0.388978 7.84897L0.390784 7.84444V7.8428C0.398529 7.81788 0.406756 7.79333 0.414743 7.76999L0.418153 7.75991C0.426381 7.73716 0.434127 7.71394 0.442575 7.69226L0.445866 7.68281C0.455378 7.6543 0.463606 7.63323 0.471592 7.61155L0.474761 7.60318C0.482747 7.58043 0.492619 7.5555 0.502131 7.5306L0.503938 7.52594C0.51379 7.50103 0.523421 7.47647 0.534578 7.44666L0.53775 7.44151C0.547863 7.41528 0.557373 7.39038 0.56853 7.3675L0.571822 7.35912C0.581794 7.3359 0.591305 7.31314 0.602462 7.28477L0.60752 7.27662C0.615747 7.25518 0.627004 7.23026 0.639706 7.2007L0.643096 7.19423C0.655898 7.16263 0.669183 7.1364 0.678815 7.11328C1.32629 5.69426 2.29546 4.70562 3.23269 3.75014L3.25208 3.73026C3.79738 3.17427 4.30734 2.69899 4.80907 2.2782C5.38222 1.79296 5.99376 1.35397 6.63796 0.969701C6.9957 0.751993 7.37916 0.583508 7.77921 0.468076C8.12201 0.370587 8.47636 0.321136 8.83093 0.321136C9.31002 0.324369 9.78441 0.406886 10.2372 0.565303C10.671 0.71572 11.0904 0.905273 11.4901 1.13137C12.1295 1.48114 12.7426 1.87908 13.3253 2.32094C13.8743 2.73706 14.3922 3.19427 14.876 3.68584C15.3807 4.20711 15.8423 4.76825 16.2566 5.36724C16.6448 5.90035 16.9656 6.48125 17.21 7.09674C17.3682 7.5276 17.5042 7.96827 17.6144 8.41351C17.7114 8.80125 17.7664 9.19931 17.7781 9.59838C17.7842 9.98967 17.739 10.3805 17.6388 10.7601C17.522 11.1924 17.3555 11.6119 17.1432 12.0043C16.8408 12.5817 16.4878 13.1312 16.0867 13.6431C15.6886 14.1465 15.261 14.6247 14.8082 15.0771C14.3191 15.5752 13.8028 16.0474 13.264 16.4894C12.6993 16.9533 12.1068 17.3806 11.4901 17.7687C10.773 18.2518 9.93465 18.5158 9.07541 18.5323ZM5.1214 15.7864C5.15862 15.813 5.19714 15.8392 5.23614 15.8658C5.19422 15.8362 5.15698 15.8113 5.1214 15.7864ZM4.44314 8.29146L4.42188 8.33612V8.34078L4.40416 8.38221L4.40255 8.38736L4.38469 8.4282V8.43156L4.36695 8.47479V8.47642L4.35076 8.52084V8.52248L4.33455 8.56213V8.56859L4.3201 8.60657L4.31829 8.61159L4.30549 8.6495V8.65469C4.30056 8.66775 4.29726 8.68089 4.29269 8.69395V8.69746C4.28775 8.71395 4.28271 8.72567 4.27954 8.73705L4.27814 8.74375L4.26652 8.77965L4.26492 8.78819C4.26209 8.79957 4.25882 8.81146 4.2554 8.82276V8.8313L4.24554 8.86595L4.22934 8.87565L4.22773 8.88402L4.21975 8.91189L4.21814 8.92001C4.21475 8.93182 4.21158 8.94328 4.20994 8.955L4.20698 8.96312L4.19878 9.00455L4.19537 9.01585L4.19244 9.03568V9.04539L4.18586 9.07201V9.07711L4.18092 9.09369L4.17598 9.11478L4.17478 9.12482V9.13646C4.17317 9.1465 4.17149 9.15621 4.16972 9.16625L4.16812 9.17763L4.16483 9.20551L4.16154 9.21873C4.16154 9.2271 4.15993 9.23689 4.15861 9.24694V9.26016C4.15861 9.2702 4.157 9.27832 4.15532 9.28837V9.31297C4.15532 9.31975 4.15532 9.32436 4.15371 9.33113V9.35424C4.15371 9.35926 4.15371 9.36579 4.15371 9.37257C4.15371 9.3775 4.15371 9.38052 4.15371 9.38554C4.15371 9.39064 4.15371 9.40203 4.1519 9.4104C4.1519 9.41341 4.1519 9.41676 4.1519 9.42027V9.42697C4.1519 9.43325 4.1519 9.4417 4.1519 9.45141C4.1519 9.45978 4.1519 9.46321 4.1519 9.46957C4.1519 9.47627 4.1519 9.48313 4.1519 9.48949V9.511C4.1519 9.5177 4.1519 9.52582 4.1519 9.53427V9.59169C4.1519 9.59838 4.1519 9.60524 4.1519 9.61161C4.1519 9.61822 4.1519 9.62634 4.1519 9.63312V9.65128C4.1519 9.6594 4.1519 9.66609 4.1519 9.67446V9.69271C4.1519 9.69723 4.1519 9.70233 4.1519 9.70752V9.73539C4.1519 9.74033 4.1519 9.74678 4.1519 9.75347V9.79147C4.1519 9.79992 4.15371 9.80796 4.15529 9.8165C4.15529 9.81934 4.15529 9.82286 4.15529 9.82621V9.8329C4.15529 9.84102 4.1569 9.84939 4.15858 9.8591V9.87383L4.15999 9.88739L4.1616 9.89877L4.1632 9.91526V9.92212L4.165 9.93685V9.95334L4.1683 9.96472V9.98289L4.1699 9.99301L4.17331 10.0141V10.0209L4.17624 10.0323V10.039L4.17942 10.0555L4.18122 10.0668C4.18283 10.0772 4.18451 10.0869 4.18768 10.0953L4.18949 10.1083L4.19394 10.1281L4.19555 10.1379V10.1498L4.20213 10.1777L4.20552 10.1907C4.20881 10.2026 4.21176 10.2124 4.21329 10.2208L4.21669 10.2321L4.22502 10.2617L4.22663 10.2667V10.2736C4.22958 10.2816 4.23297 10.2916 4.23462 10.3014L4.23791 10.3128L4.24906 10.3475V10.3526L4.25906 10.3837V10.3939L4.26363 10.4087L4.26857 10.4251L4.27018 10.432V10.4349L4.27838 10.4598L4.28133 10.4666L4.28472 10.4763V10.4815L4.29459 10.5093L4.29752 10.5177L4.30916 10.5524L4.31245 10.5571V10.5603L4.32526 10.5966L4.32706 10.6017L4.34151 10.6381L4.34312 10.6431L4.35613 10.6744L4.35774 10.6808V10.6859C4.3628 10.6972 4.36737 10.7108 4.37396 10.7239L4.37556 10.7272L4.39013 10.7653L4.3933 10.7699L4.40458 10.7983L4.40797 10.8062L4.41114 10.8129L4.429 10.8511V10.8543L4.4308 10.8574L4.44678 10.8971V10.9021L4.45312 10.9118L4.46638 10.9419V10.9435L4.47251 10.9585L4.48589 10.9863C4.8919 11.7091 5.39867 12.3677 5.98908 12.9418C6.45841 13.4516 7.0137 13.8741 7.6256 14.1875C8.06393 14.4499 8.5595 14.5953 9.06746 14.6118C9.5452 14.6037 10.011 14.4566 10.4091 14.1875C11.0779 13.7633 11.696 13.2618 12.2528 12.6926C12.769 12.1958 13.2058 11.62 13.5493 10.9863C14.0589 10.0142 13.9619 9.30653 13.5862 8.26186C13.2819 7.56397 12.8532 6.93039 12.3224 6.3939C11.7673 5.82953 11.1328 5.35078 10.4418 4.97489C9.9934 4.70247 9.4867 4.54726 8.96552 4.52404C8.53825 4.52917 8.11911 4.65121 7.7549 4.87897C7.06372 5.30312 6.43104 5.81971 5.87422 6.41199L5.86319 6.42337C5.28335 6.95314 4.80111 7.58517 4.44514 8.29157L4.44314 8.29146ZM13.7283 13.775C13.639 13.8705 13.5422 13.9699 13.4402 14.0755C13.3206 14.1976 13.1974 14.3179 13.0728 14.4383C13.1974 14.3179 13.3222 14.1976 13.4402 14.0755C13.5437 13.9699 13.639 13.8705 13.7283 13.775ZM15.5458 11.2633C15.5231 11.3081 15.5003 11.3508 15.4777 11.3954C15.5003 11.3508 15.5231 11.3064 15.5458 11.2633ZM15.7513 7.75701C15.8632 8.11014 15.9457 8.47131 15.9975 8.83933C15.9457 8.47131 15.8644 8.10846 15.7513 7.75533V7.75701ZM13.0242 3.67897C13.1875 3.82949 13.3461 3.98289 13.4998 4.13966C13.9403 4.59326 14.3435 5.08326 14.706 5.60501C14.8626 5.83264 15.0034 6.05359 15.1266 6.26651C14.6703 5.4928 14.1248 4.77838 13.4998 4.13966C13.3461 3.98122 13.1875 3.82949 13.0242 3.67897ZM10.1903 1.72359C10.3038 1.77987 10.4203 1.84107 10.5461 1.9104C10.8958 2.09996 11.2389 2.30952 11.5658 2.53046C11.2389 2.30952 10.8958 2.10163 10.5461 1.9104C10.4203 1.84274 10.3038 1.77797 10.1903 1.72359ZM4.65185 10.4547C4.59348 10.3145 4.54344 10.1725 4.50316 10.0259C4.45266 9.84587 4.42528 9.65931 4.4187 9.47133C4.43644 9.81131 4.51432 10.143 4.65185 10.453V10.4547Z" fill="#53B7D1"/>
<path fill-rule="evenodd" clip-rule="evenodd" d="M27.9994 13.5473C28.4009 13.5473 28.7713 13.5389 29.1098 13.5223C29.4494 13.5058 29.7976 13.4712 30.1586 13.4167C30.2944 13.3856 30.4191 13.5025 30.3963 13.6445V14.8573C30.3963 14.9976 30.3121 15.0951 30.1424 15.1479C29.7281 15.2798 29.302 15.3705 28.8715 15.4233C28.4154 15.4859 27.9539 15.5192 27.4928 15.5206C26.7497 15.5403 26.0119 15.415 25.3176 15.1479C24.7528 14.9215 24.2559 14.5505 23.8723 14.0702C23.4837 13.5638 23.2069 12.9745 23.0632 12.3475C22.885 11.5901 22.8009 10.8127 22.8092 10.0355V9.29119C22.8009 8.51256 22.8833 7.7354 23.0566 6.97776C23.1941 6.35052 23.4659 5.76315 23.8495 5.25519C24.2282 4.77476 24.7237 4.40353 25.2852 4.17745C25.9795 3.91005 26.7191 3.78444 27.4604 3.80444C28.323 3.81125 29.1791 3.95316 29.9998 4.22523C30.0728 4.24344 30.139 4.28294 30.1908 4.33922C30.2247 4.39204 30.241 4.45467 30.2377 4.51753V5.68222C30.2604 5.82244 30.1357 5.94158 29.9998 5.90866C29.7036 5.86723 29.38 5.83441 29.0319 5.81105C28.6822 5.78782 28.3279 5.77812 27.9688 5.77968C27.5332 5.76662 27.0995 5.83896 26.6918 5.98925C26.355 6.12276 26.0653 6.35388 25.8582 6.65431C25.63 6.99777 25.4762 7.38551 25.4049 7.79445C25.3079 8.33091 25.2623 8.87538 25.2706 9.42V9.92185C25.2623 10.4681 25.3112 11.0126 25.4131 11.5487C25.4874 11.9563 25.6477 12.3424 25.8809 12.6807C26.0976 12.976 26.3922 13.2039 26.7304 13.336C27.1367 13.4861 27.5673 13.557 27.9994 13.5456V13.5473ZM32.2364 4.25972C32.2364 4.08668 32.3158 4.00084 32.4746 4.00084H34.4426C34.5914 3.97939 34.7178 4.10812 34.6966 4.25972V12.623C34.6788 12.8671 34.7339 13.1096 34.8553 13.3208C35.0252 13.4975 35.2663 13.5818 35.5057 13.5473H39.2653C39.4146 13.5256 39.5404 13.6541 39.5198 13.8061V15.0026C39.5198 15.2087 39.4307 15.316 39.2509 15.3274C38.6682 15.3802 38.0013 15.4266 37.2506 15.4648C36.4994 15.5028 35.7213 15.5206 34.9183 15.5206C34.4928 15.529 34.0702 15.4859 33.656 15.3921C33.35 15.3244 33.0637 15.1825 32.8222 14.9793C32.6055 14.783 32.4485 14.5273 32.371 14.2435C32.2719 13.8805 32.2268 13.5042 32.2351 13.1261L32.2364 4.25972ZM43.4572 15.052C43.4783 15.2121 43.344 15.3488 43.187 15.3261H41.2659C41.1088 15.3488 40.9744 15.2121 40.9973 15.052V4.29109C40.9973 4.09806 41.0865 4.00084 41.2659 4.00084H43.187C43.3668 4.00084 43.4572 4.09806 43.4572 4.29109V15.052ZM50.8828 13.5473C51.2858 13.5473 51.6562 13.5389 51.9947 13.5223C52.3329 13.5058 52.6825 13.4712 53.0418 13.4167C53.1777 13.3836 53.3024 13.5025 53.2796 13.6428V14.8573C53.2796 14.9976 53.1955 15.0951 53.0256 15.1479C52.6113 15.2779 52.1875 15.3705 51.7569 15.4233C51.2988 15.4859 50.8375 15.5176 50.3764 15.5206C49.6336 15.5403 48.8952 15.415 48.2012 15.1479C47.636 14.9201 47.1392 14.5505 46.7573 14.0702C46.369 13.5621 46.0923 12.9745 45.9481 12.3475C45.7699 11.5901 45.6858 10.8127 45.6941 10.0338V9.28951C45.6858 8.51257 45.7687 7.7354 45.9419 6.97776C46.0794 6.35052 46.3512 5.76315 46.7349 5.25351C47.1137 4.77309 47.6087 4.40185 48.1701 4.17745C48.8645 3.91005 49.6041 3.78288 50.3453 3.80444C51.208 3.81125 52.066 3.95316 52.8848 4.22523C52.9577 4.24344 53.0239 4.28294 53.0757 4.33922C53.1098 4.39204 53.1259 4.45287 53.123 4.51753V5.68222C53.1454 5.82244 53.0207 5.94158 52.8848 5.90866C52.5885 5.86555 52.2666 5.83441 51.9169 5.81105C51.5676 5.78782 51.2129 5.77812 50.8538 5.77968C50.4183 5.76662 49.9846 5.83764 49.5767 5.98925C49.2399 6.12276 48.9519 6.35387 48.7431 6.65251C48.5149 6.99608 48.3612 7.38551 48.2902 7.79445C48.1946 8.33091 48.1494 8.87538 48.1556 9.42V9.92185C48.1494 10.4681 48.1963 11.0126 48.2981 11.5468C48.3726 11.9547 48.5327 12.3424 48.7675 12.6807C48.9825 12.976 49.2772 13.2039 49.6157 13.336C50.0217 13.4861 50.4522 13.557 50.8844 13.5456L50.8828 13.5473ZM63.0877 4.00084C63.1588 3.99244 63.2284 4.03039 63.2624 4.09674C63.2931 4.16738 63.2803 4.25014 63.2301 4.30799L59.8347 9.45297L63.6751 15.0355C63.7174 15.0867 63.7253 15.1593 63.6996 15.2204C63.6689 15.2945 63.5943 15.3375 63.5168 15.3261H61.2782C61.1858 15.3308 61.0938 15.3144 61.0097 15.278C60.9368 15.2353 60.8751 15.1742 60.8349 15.0997L57.5816 10.0521V15.0503C57.6044 15.2104 57.4685 15.3488 57.3115 15.3261H55.3901C55.2331 15.3488 55.0989 15.2104 55.1216 15.0503V4.29109C55.1216 4.09674 55.2108 3.99915 55.3901 3.99915H57.3115C57.4913 3.99915 57.5816 4.09674 57.5816 4.29109V8.85387L60.6132 4.19386C60.6957 4.07016 60.8316 3.99747 60.9775 3.99915L63.0877 4.00084Z" fill="#4D4D4D"/>
</svg>
