<?xml version="1.0" encoding="UTF-8"?>
<svg version="1.1" xmlns="http://www.w3.org/2000/svg" width="192" height="192" viewBox="0 0 32 32">
  <path d="M0 0 C4.8846525 2.26787438 7.73212562 5.1153475 10 10 C10.75381535 15.5997712 10.77303575 20.33499991 8.375 25.5 C3.80134327 30.3143755 0.6912538 32.25156236 -6 32.5 C-12.6912538 32.25156236 -15.80134327 30.3143755 -20.375 25.5 C-22.77303575 20.33499991 -22.75381535 15.5997712 -22 10 C-17.52212837 0.3553534 -9.85292056 -1.32635469 0 0 Z" fill="#010101" transform="translate(22,0)"/>
  <path d="M0 0 C2.64 0 5.28 0 8 0 C7.01 0.33 6.02 0.66 5 1 C5 6.28 5 11.56 5 17 C11.31483984 16.47434165 11.31483984 16.47434165 14 15 C14 15.99 14 16.98 14 18 C9.38 18 4.76 18 0 18 C0.66 17.67 1.32 17.34 2 17 C2 11.72 2 6.44 2 1 C1.34 0.67 0.68 0.34 0 0 Z" fill="#BCBCBC" transform="translate(9,7)"/>
  <path d="M0 0 C2.64 0 5.28 0 8 0 C7.01 0.66 6.02 1.32 5 2 C4.61588725 4.609621 4.39706803 7.0058074 4.3125 9.625 C4.27833984 10.33140625 4.24417969 11.0378125 4.20898438 11.765625 C4.12648692 13.50985688 4.06156665 15.25490395 4 17 C3.67 17 3.34 17 3 17 C2.95101563 15.94039062 2.90203125 14.88078125 2.8515625 13.7890625 C2.77653291 12.40101503 2.70098515 11.01299549 2.625 9.625 C2.5940625 8.92632812 2.563125 8.22765625 2.53125 7.5078125 C2.40500502 3.29814173 2.40500502 3.29814173 0 0 Z" fill="#F2F2F2" transform="translate(9,7)"/>
</svg>
