<svg width="64" height="19" viewBox="0 0 64 19" fill="none" xmlns="http://www.w3.org/2000/svg">
<g clip-path="url(#clip0_3746_5317)">
<path fill-rule="evenodd" clip-rule="evenodd" d="M10.6772 2.05084C10.4535 1.69096 10.164 1.37944 9.82265 1.13035C9.47556 0.895193 9.09766 0.710638 8.69751 0.586102C8.26425 0.444852 7.81651 0.350918 7.36089 0.305519C6.82893 0.255259 6.29695 0.228828 5.76235 0.231268H1.13832C0.685153 0.190729 0.288278 0.528349 0.259092 0.979382C0.259092 0.979382 0.259092 1.00582 0.259092 1.0199V8.49376C0.899768 9.86199 1.9639 10.9912 3.29855 11.7153V10.2144C3.25504 9.72791 3.61627 9.29879 4.10753 9.2582H5.49479C7.38502 9.2582 8.83034 8.86257 9.827 8.07422C10.8221 7.28558 11.3277 6.11844 11.3418 4.56707C11.3443 4.12178 11.2913 3.6758 11.1852 3.24181C11.0799 2.82019 10.9084 2.41942 10.6772 2.05084ZM7.9682 5.89266C7.80672 6.16888 7.56555 6.39153 7.27946 6.53258C6.96647 6.68166 6.62899 6.77019 6.28437 6.79386C5.90652 6.84185 5.52363 6.86586 5.14335 6.86343H3.81148C3.49097 6.86343 3.29384 6.60738 3.29384 6.2282V3.14598C3.27216 2.85845 3.52261 2.62328 3.81148 2.65702H5.14335C5.57414 2.65702 5.98116 2.6692 6.36143 2.69564C6.70362 2.70973 7.03848 2.79149 7.34675 2.93515C7.63354 3.05952 7.87156 3.27295 8.02796 3.54116C8.2043 3.90087 8.28574 4.30163 8.26425 4.7017C8.27142 5.1162 8.17023 5.52618 7.9682 5.88832V5.89266ZM3.30048 12.1658C2.1619 11.7558 1.12365 11.1066 0.259092 10.2603V13.8722C0.21784 14.1625 0.427377 14.4287 0.721501 14.4575H2.81166C3.36584 14.4575 3.30048 13.8678 3.30048 13.8678V12.1658ZM32.0242 4.16718H30.2228C29.8664 4.14316 29.5466 4.38059 29.4645 4.72292L27.3691 10.469C27.3691 10.469 25.5193 5.23623 25.3799 4.83111C25.3004 4.44513 24.9633 4.16718 24.5687 4.1623H22.9067C22.3141 4.1623 22.3141 4.62256 22.3938 4.80223C22.4731 4.98208 24.7421 11.1758 25.6305 13.5464C25.7704 13.8391 25.8689 14.1482 25.9218 14.4669C25.864 14.7809 25.7463 15.0828 25.5699 15.3515C25.5028 15.4639 25.4257 15.572 25.3392 15.6725C27.0513 15.167 29.0384 13.3211 30.0379 11.3292C31.0439 8.56787 32.3715 4.88625 32.4312 4.69667C32.4964 4.40705 32.4964 4.16718 32.0242 4.16718ZM23.9904 16.2334C23.8339 16.231 23.6797 16.2169 23.5279 16.1973C23.3375 16.1689 22.9762 16.1973 22.9762 16.5187V17.8992C22.9762 18.429 23.2363 18.4677 23.3691 18.5032C23.798 18.5971 24.2358 18.6423 24.6741 18.64C25.1919 18.6542 25.7048 18.5486 26.1772 18.3332C26.6057 18.1172 26.9885 17.8154 27.2993 17.4484C27.653 17.0483 27.9523 16.6029 28.1884 16.1229C28.4435 15.6147 28.6866 15.0515 28.9178 14.4354L29.1876 13.7023C28.6506 14.2317 26.2833 16.4536 23.9904 16.2334ZM21.2615 5.81841C21.1631 5.58584 21.028 5.37033 20.8646 5.1783C20.6956 5.00348 20.5058 4.84763 20.2987 4.71822C20.0744 4.56707 19.8363 4.43766 19.5878 4.33278C19.3325 4.23396 19.0724 4.15727 18.8054 4.09779C18.5022 4.03029 18.1914 3.98733 17.8806 3.96576C17.5485 3.93219 17.1747 3.91305 16.763 3.91305C14.0059 3.91305 12.4381 4.7784 12.0552 6.50876C11.985 6.78481 12.1777 7.05546 12.4622 7.07945H14.16C14.6224 7.07945 14.6224 6.93822 14.7979 6.5425C14.875 6.32699 15.0125 6.13741 15.1952 5.99825C15.6291 5.72011 16.142 5.58827 16.6549 5.62689C17.1364 5.57644 17.618 5.69646 18.02 5.96259C18.3258 6.24786 18.5065 6.64043 18.5235 7.0579C18.5235 7.62859 18.348 8.00465 17.6347 8.00465C15.9491 7.94446 14.1359 8.13407 13.1143 8.71886C12.0884 9.3424 11.4793 10.4618 11.5132 11.6551C11.5035 12.1103 11.5952 12.5659 11.7876 12.9805C11.9659 13.3403 12.2283 13.6566 12.5484 13.9009C12.8881 14.1746 13.2783 14.3784 13.6977 14.498C14.1691 14.6274 14.6581 14.6895 15.1469 14.6828C15.8073 14.6944 16.4644 14.6012 17.0952 14.4067C17.6519 14.179 18.1789 13.8844 18.663 13.5272V13.8507C18.663 14.1672 18.7598 14.4528 19.1254 14.4528H21.0908C21.488 14.4528 21.5797 14.1722 21.5797 13.8219V7.79854C21.5823 7.42248 21.5558 7.04798 21.5026 6.67436C21.457 6.38162 21.3777 6.09445 21.2615 5.81841ZM18.5742 11.7367C18.5742 11.7367 18.0663 12.796 16.2622 12.796C15.8313 12.8157 15.4022 12.6976 15.041 12.4609C14.7184 12.211 14.5454 11.8159 14.5786 11.4109C14.5379 10.8618 14.8413 10.3463 15.3425 10.1137C16.0717 9.83328 16.8498 9.70389 17.6327 9.73017C18.141 9.65584 18.5958 10.0493 18.5934 10.5599L18.5742 11.7367Z" fill="#333333"/>
<path fill-rule="evenodd" clip-rule="evenodd" d="M63.5185 7.86248C63.9834 8.6057 63.9834 9.54813 63.5185 10.2931C63.0561 10.9908 60.5351 13.6704 59.7041 14.5314C58.9815 15.2763 58.0062 16.0315 57.0408 16.0315H37.0228C34.3133 16.0315 34.1523 15.1113 34.1523 13.0595V4.68703C34.1523 2.5846 34.7755 1.97113 36.6303 1.97113H57.0866C58.0426 1.97113 58.8997 2.46024 59.8609 3.44527C60.7012 4.28627 63.1838 7.36431 63.5185 7.86248Z" fill="#33CCCC"/>
<path fill-rule="evenodd" clip-rule="evenodd" d="M59.5501 11.0303C58.9433 12.6577 57.3442 13.7026 55.6031 13.6118C52.939 13.6118 51.1617 11.8067 51.1617 9.10037C51.1617 6.39438 53.0111 4.49828 55.5088 4.49828C58.0063 4.49828 59.6705 6.21958 59.7764 8.99499C59.7764 9.34945 59.6893 9.66381 59.2418 9.66381H53.5895C53.6277 11.1499 54.3436 11.9648 55.6196 11.9648C56.3133 11.9813 56.9513 11.5954 57.2572 10.9799C57.3774 10.8044 57.5779 10.7037 57.7893 10.7062H59.2469C59.4318 10.6991 59.5791 10.8646 59.5452 11.0467L59.5501 11.0303ZM38.6968 5.20761V5.15735C38.6968 4.88668 38.6968 4.623 38.2345 4.623H36.5556C36.1629 4.623 36.1438 4.83379 36.1438 5.16707V7.37489C36.8058 6.45876 37.6828 5.71376 38.6968 5.20761ZM49.9385 13.1968V7.74853C49.9385 5.51706 48.949 4.40277 46.9693 4.40277C46.4176 4.40938 45.8806 4.5675 45.4156 4.86284C44.9027 5.18115 44.4452 5.57947 44.0598 6.04218C43.8867 5.54072 43.5469 5.11436 43.0987 4.83156C42.5884 4.55113 42.0106 4.41411 41.4298 4.43807C40.5728 4.44314 39.7442 4.72841 39.0672 5.24884C38.9182 5.39722 36.1388 7.54986 36.1388 9.79564V13.2063C36.1388 13.3117 36.0833 13.7266 36.5509 13.7266H38.2941C38.8361 13.7266 38.7857 13.3718 38.7857 13.2259V7.7033C39.077 7.31003 39.6723 6.37769 40.6567 6.37769C40.9772 6.349 41.2906 6.49492 41.4711 6.7588C41.6684 7.15154 41.7554 7.5904 41.7213 8.02909V13.216C41.7213 13.3215 41.6662 13.7364 42.1333 13.7364H43.8579C44.3973 13.7364 44.3466 13.3817 44.3466 13.2327V7.68363C44.6617 7.29351 45.2714 6.35805 46.2205 6.35805C46.5451 6.33177 46.8583 6.47615 47.0488 6.73932C47.2488 7.1326 47.3373 7.57128 47.3017 8.01014V13.1968C47.3017 13.3026 47.2459 13.7168 47.7134 13.7168H49.457C50.0037 13.6908 49.9385 13.3407 49.9385 13.1968ZM55.5185 6.21455C54.4589 6.21455 53.7436 6.94768 53.587 8.15361H57.3774C57.2814 7.09884 56.708 6.21455 55.5185 6.21455Z" fill="white"/>
</g>
<defs>
<clipPath id="clip0_3746_5317">
<rect width="63.6111" height="18.4134" fill="white" transform="translate(0.253906 0.227966)"/>
</clipPath>
</defs>
</svg>
